Coordinates
version=1
nRows=10
nColumns=23
inDegrees=yes

Units are S.I. units (second, meters, Newtons, ...)
If the header above contains a line with 'inDegrees', this indicates whether rotational values are in degrees (yes) or radians (no).

endheader
time	pelvis_tilt	pelvis_list	pelvis_rotation	pelvis_tx	pelvis_ty	pelvis_tz	hip_flexion_r	hip_adduction_r	hip_rotation_r	knee_angle_r	knee_angle_r_beta	ankle_angle_r	subtalar_angle_r	mtp_angle_r	hip_flexion_l	hip_adduction_l	hip_rotation_l	knee_angle_l	knee_angle_l_beta	ankle_angle_l	subtalar_angle_l	mtp_angle_l
     22.50000000	    -12.80221211	     -1.27141733	     -0.44476699	      2.24448300	      0.96495902	      0.99087931	     47.96223132	      0.43002342	     -7.28996742	     28.59057652	      0.49899970	      2.68827721	      3.04932023	      0.00000000	    -15.01087314	     -0.18661252	     -6.26112355	     40.52134410	      0.70723087	    -24.84240666	      1.06190365	      0.00000000
     22.50666667	    -12.43062420	     -1.45788343	     -0.65081350	      2.24566310	      0.96451486	      0.99153699	     46.08715725	      1.09546922	     -7.53837295	     24.35442482	      0.42506490	      2.54649917	      5.37376132	      0.00000000	    -14.71854911	     -0.50833165	     -6.64432755	     44.20809262	      0.77157677	    -24.69463884	      0.42084464	      0.00000000
     22.51333333	    -12.03920682	     -1.66360647	     -0.84953260	      2.24679085	      0.96360781	      0.99215338	     44.29009904	      1.77493976	     -7.67452653	     20.71241491	      0.36149984	      2.18989342	      7.10802190	      0.00000000	    -14.32387360	     -0.89959448	     -7.11605792	     48.06286109	      0.83885517	    -24.68339902	     -0.56917111	      0.00000000
     22.52000000	    -11.51888804	     -1.92753911	     -1.08686012	      2.24786872	      0.96242097	      0.99279653	     42.48784289	      2.49436805	     -7.80995168	     17.75713177	      0.30992042	      1.66454465	      8.34638883	      0.00000000	    -13.98074478	     -1.38229456	     -7.69585860	     51.99349867	      0.90745774	    -24.87575360	     -1.89922203	      0.00000000
     22.52666667	    -11.15685923	     -2.08080155	     -1.37374369	      2.24873031	      0.96050101	      0.99342855	     41.15640443	      3.05262299	     -8.05275128	     15.81247318	      0.27597972	      1.11023279	      9.18221659	      0.00000000	    -13.33874347	     -1.74290543	     -8.24535145	     56.06020813	      0.97843521	    -25.16801924	     -3.61436306	      0.00000000
     22.53333333	    -10.37426399	     -2.51199999	     -1.64018801	      2.24969169	      0.95878249	      0.99402865	     39.43617390	      3.79799841	     -8.50783941	     14.46712221	      0.25249892	      0.45027339	      9.42173459	      0.00000000	    -13.10924961	     -2.44971909	     -8.90369501	     60.11328908	      1.04917482	    -25.43475931	     -5.40449256	      0.00000000
     22.54000000	     -9.84679210	     -2.71579505	     -2.10296873	      2.25029130	      0.95612565	      0.99482310	     38.39088638	      4.33822701	     -8.98076355	     14.31443419	      0.24983401	      0.00462673	      9.40398480	      0.00000000	    -12.49622248	     -2.88661726	     -9.62606121	     64.26099427	      1.12156593	    -25.65592589	     -7.31377642	      0.00000000
     22.54666667	     -9.16094301	     -3.11279715	     -2.44809871	      2.25088173	      0.95338426	      0.99537028	     37.24993409	      4.90834602	     -9.66072680	     14.76197391	      0.25764505	     -0.44892182	      8.95560828	      0.00000000	    -11.97310415	     -3.51709614	    -10.16080445	     68.40057546	      1.19381525	    -25.88977634	     -9.32986957	      0.00000000
     22.55333333	     -8.35912202	     -3.44113467	     -2.95442275	      2.25125990	      0.95026551	      0.99602633	     36.18434393	      5.41797162	    -10.19671445	     16.00254132	      0.27929703	     -0.67197474	      8.16284803	      0.00000000	    -11.52602865	     -4.08549454	    -10.85619579	     72.51925463	      1.26569976	    -25.80760309	    -11.05818732	      0.00000000
     22.56000000	     -7.48963176	     -3.82089307	     -3.44654331	      2.25151225	      0.94692450	      0.99654652	     35.11315696	      5.89851539	    -10.64598562	     17.76603997	      0.31007589	     -0.82439817	      7.14128766	      0.00000000	    -11.07232269	     -4.69408688	    -11.45213240	     76.60705915	      1.33704541	    -25.58241597	    -12.63577218	      0.00000000
